<?xml version="1.0" encoding="utf-8"?>
<!DOCTYPE svg PUBLIC "-//W3C//DTD SVG 1.1//EN" "http://www.w3.org/Graphics/SVG/1.1/DTD/svg11.dtd">
<svg version="1.1" xmlns="http://www.w3.org/2000/svg"  width="512" height="512" viewBox="0 0 512 512">
    <g fill="#61DAFB">
        <path  d="M256 191.978c-35.328 0-64 28.672-64 64s28.672 64 64 64 64-28.672 64-64-28.672-64-64-64zM452.928 199.786c-6.933-2.24-13.184-5.803-18.538-10.518-8.618 15.872-19.243 32.15-30.699 48.47-17.813-22.891-38.144-45.995-60.822-68.672-22.507-22.506-45.696-42.922-68.822-60.886 54.976-38.742 107.819-62.059 145.43-62.059 15.274 0 26.966 3.947 34.731 11.712 8.448 8.448 12.182 21.718 11.52 38.528 1.216-0.085 2.346-0.384 3.584-0.384 6.144 0 11.99 1.258 17.472 3.157 1.322-23.915-4.352-43.242-17.493-56.406-11.925-11.925-28.672-17.962-49.813-17.962-43.584 0-102.656 26.006-163.456 69.91-60.8-43.904-119.872-69.93-163.456-69.93-4.522 0-8.768 0.427-12.886 0.982 5.824 5.632 10.219 12.586 13.013 20.374 37.611 0.042 90.41 23.36 145.344 62.080-23.168 18.005-46.379 38.422-68.864 60.928-22.4 22.422-42.816 45.654-60.928 68.992-18.24-25.834-33.28-51.456-44.053-75.798-7.382-16.619-12.309-31.872-15.19-45.654-2.112 0.278-4.16 0.662-6.336 0.662-5.504 0-10.709-1.088-15.701-2.624 2.858 16.981 8.64 35.797 17.728 56.277 12.096 27.328 29.12 56.149 50.026 85.077-20.885 28.885-37.867 57.707-49.984 85.013-25.792 58.176-26.474 103.702-1.941 128.235 11.925 11.925 28.672 17.962 49.813 17.962 64.427 0 162.688-56.661 250.347-144.363 22.464-22.486 42.901-45.781 60.992-69.184 59.094 83.499 76.032 154.667 50.24 180.458-7.765 7.765-19.456 11.712-34.731 11.712-20.118 0-44.694-6.784-71.552-18.923-2.837 6.827-7.040 12.885-12.267 17.962 31.104 14.4 59.818 22.293 83.818 22.293 21.142 0 37.888-6.038 49.813-17.962 37.077-37.077 13.675-122.262-52.245-213.568 13.546-18.794 25.92-37.568 35.904-55.893zM92.608 465.92c-15.275 0-26.965-3.947-34.73-11.712-17.6-17.6-15.296-55.68 6.357-104.49 10.773-24.32 25.792-49.899 43.99-75.733 18.112 23.317 38.506 46.55 60.886 68.906 22.635 22.635 45.952 42.688 69.248 60.714-55.104 38.912-108.096 62.315-145.75 62.315zM327.872 327.808c-23.339 23.339-47.616 44.416-71.766 62.762-24.214-18.389-48.512-39.402-71.915-62.762-23.339-23.339-44.352-47.552-62.784-71.765 18.432-24.256 39.51-48.49 62.848-71.851 23.317-23.339 47.616-44.416 71.786-62.805 24.149 18.368 48.426 39.446 71.744 62.762 24.235 24.234 45.099 48.32 62.976 71.68-18.432 24.32-39.488 48.576-62.89 71.978zM469.334 127.978c-11.798 0-21.334 9.536-21.334 21.334s9.536 21.334 21.334 21.334 21.334-9.536 21.334-21.334-9.536-21.334-21.334-21.334zM298.666 405.312c-11.798 0-21.334 9.536-21.334 21.334s9.536 21.334 21.334 21.334 21.334-9.536 21.334-21.334-9.536-21.334-21.334-21.334zM42.666 85.312c11.797 0 21.334-9.536 21.334-21.334s-9.536-21.334-21.334-21.334-21.334 9.536-21.334 21.334 9.536 21.334 21.334 21.334z" />
    </g>
</svg>
